<?xml version="1.0" encoding="UTF-8" standalone="no"?>
<!DOCTYPE svg PUBLIC "-//W3C//DTD SVG 1.1//EN" "http://www.w3.org/Graphics/SVG/1.1/DTD/svg11.dtd">
<svg width="100%" height="100%" viewBox="0 0 1000 1000" version="1.1" xmlns="http://www.w3.org/2000/svg" xmlns:xlink="http://www.w3.org/1999/xlink" xml:space="preserve" xmlns:serif="http://www.serif.com/" style="fill-rule:evenodd;clip-rule:evenodd;">
    <g transform="matrix(1.27586,0,0,1.27586,-137.931,-137.931)">
        <path d="M108.108,121.622L297.297,121.622M405.405,121.622L540.541,121.622M594.595,121.622L675.676,121.622M702.703,121.622L891.892,121.622M108.108,148.649L135.135,148.649M270.27,148.649L297.297,148.649M351.351,148.649L378.378,148.649M405.405,148.649L432.432,148.649M459.459,148.649L567.568,148.649M648.649,148.649L675.676,148.649M702.703,148.649L729.73,148.649M864.865,148.649L891.892,148.649M108.108,175.676L135.135,175.676M162.162,175.676L243.243,175.676M270.27,175.676L297.297,175.676M324.324,175.676L378.378,175.676M405.405,175.676L432.432,175.676M459.459,175.676L486.486,175.676M513.514,175.676L540.541,175.676M621.622,175.676L675.676,175.676M702.703,175.676L729.73,175.676M756.757,175.676L837.838,175.676M864.865,175.676L891.892,175.676M108.108,202.703L135.135,202.703M162.162,202.703L243.243,202.703M270.27,202.703L297.297,202.703M324.324,202.703L432.432,202.703M486.486,202.703L540.541,202.703M567.568,202.703L594.595,202.703M621.622,202.703L648.649,202.703M702.703,202.703L729.73,202.703M756.757,202.703L837.838,202.703M864.865,202.703L891.892,202.703M108.108,229.73L135.135,229.73M162.162,229.73L243.243,229.73M270.27,229.73L297.297,229.73M324.324,229.73L405.405,229.73M432.432,229.73L459.459,229.73M513.514,229.73L648.649,229.73M702.703,229.73L729.73,229.73M756.757,229.73L837.838,229.73M864.865,229.73L891.892,229.73M108.108,256.757L135.135,256.757M270.27,256.757L297.297,256.757M324.324,256.757L351.351,256.757M378.378,256.757L405.405,256.757M432.432,256.757L459.459,256.757M567.568,256.757L594.595,256.757M648.649,256.757L675.676,256.757M702.703,256.757L729.73,256.757M864.865,256.757L891.892,256.757M108.108,283.784L297.297,283.784M324.324,283.784L351.351,283.784M378.378,283.784L405.405,283.784M432.432,283.784L459.459,283.784M486.486,283.784L513.514,283.784M540.541,283.784L567.568,283.784M594.595,283.784L621.622,283.784M648.649,283.784L675.676,283.784M702.703,283.784L891.892,283.784M324.324,310.811L378.378,310.811M405.405,310.811L459.459,310.811M486.486,310.811L513.514,310.811M540.541,310.811L567.568,310.811M594.595,310.811L621.622,310.811M108.108,337.838L135.135,337.838M162.162,337.838L297.297,337.838M405.405,337.838L459.459,337.838M567.568,337.838L594.595,337.838M621.622,337.838L675.676,337.838M702.703,337.838L837.838,337.838M108.108,364.865L216.216,364.865M405.405,364.865L540.541,364.865M594.595,364.865L783.784,364.865M864.865,364.865L891.892,364.865M135.135,391.892L162.162,391.892M270.27,391.892L351.351,391.892M378.378,391.892L432.432,391.892M459.459,391.892L540.541,391.892M567.568,391.892L594.595,391.892M702.703,391.892L756.757,391.892M135.135,418.919L216.216,418.919M297.297,418.919L351.351,418.919M378.378,418.919L405.405,418.919M432.432,418.919L486.486,418.919M513.514,418.919L567.568,418.919M621.622,418.919L648.649,418.919M702.703,418.919L810.811,418.919M837.838,418.919L864.865,418.919M162.162,445.946L216.216,445.946M270.27,445.946L324.324,445.946M351.351,445.946L459.459,445.946M486.486,445.946L513.514,445.946M567.568,445.946L594.595,445.946M648.649,445.946L702.703,445.946M783.784,445.946L837.838,445.946M162.162,472.973L189.189,472.973M216.216,472.973L243.243,472.973M297.297,472.973L324.324,472.973M378.378,472.973L432.432,472.973M540.541,472.973L783.784,472.973M864.865,472.973L891.892,472.973M135.135,500L216.216,500M270.27,500L351.351,500M432.432,500L459.459,500M513.514,500L567.568,500M648.649,500L675.676,500M702.703,500L729.73,500M756.757,500L837.838,500M108.108,527.027L162.162,527.027M189.189,527.027L243.243,527.027M297.297,527.027L351.351,527.027M378.378,527.027L459.459,527.027M486.486,527.027L567.568,527.027M594.595,527.027L621.622,527.027M648.649,527.027L756.757,527.027M837.838,527.027L864.865,527.027M108.108,554.054L135.135,554.054M189.189,554.054L243.243,554.054M270.27,554.054L297.297,554.054M351.351,554.054L378.378,554.054M432.432,554.054L459.459,554.054M567.568,554.054L594.595,554.054M783.784,554.054L837.838,554.054M108.108,581.081L162.162,581.081M189.189,581.081L216.216,581.081M243.243,581.081L270.27,581.081M297.297,581.081L405.405,581.081M459.459,581.081L513.514,581.081M540.541,581.081L783.784,581.081M810.811,581.081L837.838,581.081M864.865,581.081L891.892,581.081M108.108,608.108L135.135,608.108M189.189,608.108L216.216,608.108M270.27,608.108L351.351,608.108M378.378,608.108L405.405,608.108M459.459,608.108L540.541,608.108M594.595,608.108L621.622,608.108M729.73,608.108L783.784,608.108M810.811,608.108L837.838,608.108M108.108,635.135L135.135,635.135M243.243,635.135L270.27,635.135M324.324,635.135L432.432,635.135M459.459,635.135L486.486,635.135M513.514,635.135L567.568,635.135M648.649,635.135L675.676,635.135M702.703,635.135L783.784,635.135M837.838,635.135L864.865,635.135M108.108,662.162L135.135,662.162M189.189,662.162L351.351,662.162M378.378,662.162L405.405,662.162M432.432,662.162L459.459,662.162M486.486,662.162L594.595,662.162M621.622,662.162L783.784,662.162M810.811,662.162L891.892,662.162M324.324,689.189L378.378,689.189M432.432,689.189L459.459,689.189M540.541,689.189L567.568,689.189M648.649,689.189L675.676,689.189M756.757,689.189L891.892,689.189M108.108,716.216L297.297,716.216M351.351,716.216L378.378,716.216M432.432,716.216L459.459,716.216M513.514,716.216L540.541,716.216M567.568,716.216L675.676,716.216M702.703,716.216L729.73,716.216M756.757,716.216L837.838,716.216M108.108,743.243L135.135,743.243M270.27,743.243L297.297,743.243M324.324,743.243L351.351,743.243M378.378,743.243L432.432,743.243M486.486,743.243L540.541,743.243M621.622,743.243L675.676,743.243M756.757,743.243L783.784,743.243M837.838,743.243L891.892,743.243M108.108,770.27L135.135,770.27M162.162,770.27L243.243,770.27M270.27,770.27L297.297,770.27M324.324,770.27L351.351,770.27M567.568,770.27L594.595,770.27M648.649,770.27L783.784,770.27M810.811,770.27L864.865,770.27M108.108,797.297L135.135,797.297M162.162,797.297L243.243,797.297M270.27,797.297L297.297,797.297M324.324,797.297L351.351,797.297M405.405,797.297L513.514,797.297M540.541,797.297L621.622,797.297M783.784,797.297L891.892,797.297M108.108,824.324L135.135,824.324M162.162,824.324L243.243,824.324M270.27,824.324L297.297,824.324M324.324,824.324L351.351,824.324M405.405,824.324L459.459,824.324M513.514,824.324L540.541,824.324M594.595,824.324L864.865,824.324M108.108,851.351L135.135,851.351M270.27,851.351L297.297,851.351M351.351,851.351L378.378,851.351M405.405,851.351L432.432,851.351M540.541,851.351L567.568,851.351M594.595,851.351L621.622,851.351M648.649,851.351L702.703,851.351M783.784,851.351L810.811,851.351M837.838,851.351L864.865,851.351M108.108,878.378L297.297,878.378M324.324,878.378L351.351,878.378M378.378,878.378L405.405,878.378M432.432,878.378L459.459,878.378M486.486,878.378L513.514,878.378M567.568,878.378L648.649,878.378M756.757,878.378L783.784,878.378M810.811,878.378L837.838,878.378" style="fill-rule:nonzero;stroke:black;stroke-width:27.43px;"/>
    </g>
</svg>
