<?xml version="1.0" standalone="no"?>
<!DOCTYPE svg PUBLIC "-//W3C//DTD SVG 20010904//EN"
 "http://www.w3.org/TR/2001/REC-SVG-20010904/DTD/svg10.dtd">
<svg version="1.0" xmlns="http://www.w3.org/2000/svg"
 width="200.000000pt" height="200.000000pt" viewBox="0 0 200.000000 200.000000"
 preserveAspectRatio="xMidYMid meet">
<metadata>
Created by potrace 1.11, written by Peter Selinger 2001-2013
</metadata><g><rect x="0" y="0" width="200" height="200" fill="#ffffff" />
<g transform="translate(0.000000,200.000000) scale(0.033333,-0.033333)"
fill="#000000" stroke="none">
<path d="M0 5160 l0 -840 840 0 840 0 0 840 0 840 -840 0 -840 0 0 -840z
m1440 0 l0 -600 -600 0 -600 0 0 600 0 600 600 0 600 0 0 -600z"/>
<path d="M480 5160 l0 -360 360 0 360 0 0 360 0 360 -360 0 -360 0 0 -360z"/>
<path d="M1920 5880 l0 -120 120 0 120 0 0 120 0 120 -120 0 -120 0 0 -120z"/>
<path d="M2400 5760 l0 -240 -120 0 -120 0 0 -120 0 -120 120 0 120 0 0 -120
0 -120 -240 0 -240 0 0 -360 0 -360 120 0 120 0 0 120 0 120 120 0 120 0 0
-240 0 -240 -120 0 -120 0 0 -120 0 -120 -120 0 -120 0 0 120 0 120 -840 0
-840 0 0 -120 0 -120 -120 0 -120 0 0 -360 0 -360 240 0 240 0 0 -120 0 -120
240 0 240 0 0 120 0 120 120 0 120 0 0 -120 0 -120 240 0 240 0 0 -120 0 -120
-120 0 -120 0 0 -120 0 -120 -240 0 -240 0 0 120 0 120 -120 0 -120 0 0 -120
0 -120 -120 0 -120 0 0 -120 0 -120 480 0 480 0 0 -120 0 -120 240 0 240 0 0
-840 0 -840 120 0 120 0 0 120 0 120 120 0 120 0 0 240 0 240 120 0 120 0 0
120 0 120 120 0 120 0 0 -120 0 -120 480 0 480 0 0 -240 0 -240 -120 0 -120 0
0 -120 0 -120 240 0 240 0 0 -120 0 -120 120 0 120 0 0 120 0 120 120 0 120 0
0 -120 0 -120 720 0 720 0 0 840 0 840 -360 0 -360 0 0 120 0 120 120 0 120 0
0 120 0 120 -120 0 -120 0 0 -120 0 -120 -120 0 -120 0 0 240 0 240 120 0 120
0 0 240 0 240 120 0 120 0 0 -240 0 -240 120 0 120 0 0 -120 0 -120 120 0 120
0 0 240 0 240 -120 0 -120 0 0 120 0 120 120 0 120 0 0 360 0 360 -120 0 -120
0 0 120 0 120 120 0 120 0 0 120 0 120 -120 0 -120 0 0 -120 0 -120 -120 0
-120 0 0 -240 0 -240 120 0 120 0 0 -120 0 -120 -240 0 -240 0 0 -120 0 -120
-120 0 -120 0 0 120 0 120 -120 0 -120 0 0 -120 0 -120 -120 0 -120 0 0 360 0
360 120 0 120 0 0 -120 0 -120 240 0 240 0 0 120 0 120 -240 0 -240 0 0 120 0
120 120 0 120 0 0 120 0 120 -240 0 -240 0 0 -240 0 -240 -240 0 -240 0 0 240
0 240 -240 0 -240 0 0 240 0 240 120 0 120 0 0 -120 0 -120 120 0 120 0 0 120
0 120 -120 0 -120 0 0 120 0 120 120 0 120 0 0 360 0 360 -120 0 -120 0 0 240
0 240 -120 0 -120 0 0 -120 0 -120 -120 0 -120 0 0 120 0 120 -480 0 -480 0 0
-240z m720 -240 l0 -240 120 0 120 0 0 120 0 120 120 0 120 0 0 -120 0 -120
-120 0 -120 0 0 -120 0 -120 240 0 240 0 0 -120 0 -120 -120 0 -120 0 0 -120
0 -120 -120 0 -120 0 0 -240 0 -240 120 0 120 0 0 -120 0 -120 120 0 120 0 0
-120 0 -120 -120 0 -120 0 0 120 0 120 -240 0 -240 0 0 -120 0 -120 -120 0
-120 0 0 -120 0 -120 120 0 120 0 0 -120 0 -120 120 0 120 0 0 120 0 120 120
0 120 0 0 -120 0 -120 -120 0 -120 0 0 -120 0 -120 240 0 240 0 0 240 0 240
120 0 120 0 0 -240 0 -240 240 0 240 0 0 -240 0 -240 -120 0 -120 0 0 -120 0
-120 -120 0 -120 0 0 120 0 120 -120 0 -120 0 0 -240 0 -240 -120 0 -120 0 0
-120 0 -120 120 0 120 0 0 -120 0 -120 -240 0 -240 0 0 120 0 120 -240 0 -240
0 0 -120 0 -120 -360 0 -360 0 0 240 0 240 -120 0 -120 0 0 120 0 120 120 0
120 0 0 120 0 120 480 0 480 0 0 120 0 120 -120 0 -120 0 0 120 0 120 -120 0
-120 0 0 -120 0 -120 -360 0 -360 0 0 -120 0 -120 -120 0 -120 0 0 -120 0
-120 -120 0 -120 0 0 120 0 120 120 0 120 0 0 120 0 120 120 0 120 0 0 120 0
120 -120 0 -120 0 0 120 0 120 -120 0 -120 0 0 120 0 120 -240 0 -240 0 0 120
0 120 -120 0 -120 0 0 -120 0 -120 -240 0 -240 0 0 240 0 240 120 0 120 0 0
-120 0 -120 120 0 120 0 0 120 0 120 120 0 120 0 0 -120 0 -120 120 0 120 0 0
120 0 120 240 0 240 0 0 -120 0 -120 120 0 120 0 0 -120 0 -120 120 0 120 0 0
240 0 240 240 0 240 0 0 120 0 120 120 0 120 0 0 120 0 120 -120 0 -120 0 0
120 0 120 120 0 120 0 0 -120 0 -120 120 0 120 0 0 480 0 480 -120 0 -120 0 0
-120 0 -120 -120 0 -120 0 0 -120 0 -120 -120 0 -120 0 0 120 0 120 120 0 120
0 0 120 0 120 -120 0 -120 0 0 120 0 120 120 0 120 0 0 120 0 120 240 0 240 0
0 -240z m1920 -2760 l0 -120 -120 0 -120 0 0 120 0 120 120 0 120 0 0 -120z
m-240 -1200 l0 -360 -360 0 -360 0 0 360 0 360 360 0 360 0 0 -360z m480 0 l0
-120 120 0 120 0 0 -120 0 -120 120 0 120 0 0 -120 0 -120 -120 0 -120 0 0
120 0 120 -120 0 -120 0 0 -120 0 -120 -120 0 -120 0 0 120 0 120 120 0 120 0
0 120 0 120 -120 0 -120 0 0 120 0 120 120 0 120 0 0 -120z m-480 -720 l0
-120 120 0 120 0 0 -120 0 -120 -480 0 -480 0 0 120 0 120 240 0 240 0 0 120
0 120 120 0 120 0 0 -120z m960 -360 l0 -240 -240 0 -240 0 0 120 0 120 120 0
120 0 0 120 0 120 120 0 120 0 0 -240z"/>
<path d="M2640 5400 l0 -120 120 0 120 0 0 120 0 120 -120 0 -120 0 0 -120z"/>
<path d="M2880 3960 l0 -120 -120 0 -120 0 0 -120 0 -120 -120 0 -120 0 0
-120 0 -120 -120 0 -120 0 0 -240 0 -240 120 0 120 0 0 240 0 240 120 0 120 0
0 120 0 120 120 0 120 0 0 120 0 120 120 0 120 0 0 120 0 120 -120 0 -120 0 0
-120z"/>
<path d="M1440 3480 l0 -120 120 0 120 0 0 -120 0 -120 120 0 120 0 0 120 0
120 -120 0 -120 0 0 120 0 120 -120 0 -120 0 0 -120z"/>
<path d="M3120 2760 l0 -120 120 0 120 0 0 -120 0 -120 -120 0 -120 0 0 -120
0 -120 -480 0 -480 0 0 -120 0 -120 120 0 120 0 0 -120 0 -120 240 0 240 0 0
120 0 120 120 0 120 0 0 120 0 120 240 0 240 0 0 120 0 120 120 0 120 0 0 120
0 120 120 0 120 0 0 -120 0 -120 120 0 120 0 0 120 0 120 -120 0 -120 0 0 120
0 120 -120 0 -120 0 0 -120 0 -120 -240 0 -240 0 0 120 0 120 -120 0 -120 0 0
-120z"/>
<path d="M4320 1560 l0 -120 120 0 120 0 0 120 0 120 -120 0 -120 0 0 -120z"/>
<path d="M4320 5160 l0 -840 840 0 840 0 0 840 0 840 -840 0 -840 0 0 -840z
m1440 0 l0 -600 -600 0 -600 0 0 600 0 600 600 0 600 0 0 -600z"/>
<path d="M4800 5160 l0 -360 360 0 360 0 0 360 0 360 -360 0 -360 0 0 -360z"/>
<path d="M0 2400 l0 -480 120 0 120 0 0 480 0 480 -120 0 -120 0 0 -480z"/>
<path d="M0 840 l0 -840 840 0 840 0 0 840 0 840 -840 0 -840 0 0 -840z m1440
0 l0 -600 -600 0 -600 0 0 600 0 600 600 0 600 0 0 -600z"/>
<path d="M480 840 l0 -360 360 0 360 0 0 360 0 360 -360 0 -360 0 0 -360z"/>
<path d="M3120 360 l0 -360 120 0 120 0 0 360 0 360 -120 0 -120 0 0 -360z"/>
<path d="M2640 360 l0 -120 120 0 120 0 0 120 0 120 -120 0 -120 0 0 -120z"/>
</g>
</g></svg>
