<?xml version="1.0" encoding="UTF-8" standalone="no"?>
<!DOCTYPE svg PUBLIC "-//W3C//DTD SVG 1.1//EN" "http://www.w3.org/Graphics/SVG/1.1/DTD/svg11.dtd">
<svg width="100%" height="100%" viewBox="0 0 3840 3840" version="1.1" xmlns="http://www.w3.org/2000/svg" xmlns:xlink="http://www.w3.org/1999/xlink" xml:space="preserve" xmlns:serif="http://www.serif.com/" style="fill-rule:evenodd;clip-rule:evenodd;stroke-linejoin:round;stroke-miterlimit:2;">
    <g id="Belgo.art-Logotype-Monochrome" serif:id="Belgo.art Logotype Monochrome" transform="matrix(0.533333,0,0,0.0664951,0.0711752,1549.22)">
        <path d="M811.554,8620.69C801.767,8620.69 794.917,8593.22 791.002,8538.28C787.087,8483.34 785.13,8424.47 785.13,8361.67C786.109,8228.24 790.023,8153.67 796.874,8137.97C803.725,8122.28 812.043,8114.43 821.83,8114.43C853.147,8114.43 875.167,8069.29 887.889,7979.03C900.612,7888.76 908.686,7774.95 912.111,7637.59C915.537,7500.23 917.249,7356.99 917.249,7207.85L917.249,2533.7C917.249,2384.56 915.537,2241.32 912.111,2103.96C908.686,1966.6 900.612,1852.79 887.889,1762.52C875.167,1672.26 853.147,1627.12 821.83,1627.12C812.043,1627.12 803.725,1619.28 796.874,1603.58C790.023,1587.88 786.109,1513.31 785.13,1379.88C785.13,1317.08 787.087,1258.21 791.002,1203.27C794.917,1148.33 801.767,1120.86 811.554,1120.86C842.871,1128.7 872.231,1136.55 899.633,1144.4C927.036,1152.25 955.417,1156.18 984.777,1156.18L1191.76,1156.18C1248.53,1156.18 1293.3,1189.54 1326.08,1256.25C1358.87,1322.97 1387.5,1419.12 1411.96,1544.71C1437.41,1678.14 1457.47,1860.63 1472.15,2092.18C1486.83,2323.73 1494.17,2576.87 1494.17,2851.59C1494.17,3204.8 1483.89,3501.1 1463.34,3740.5C1442.79,3979.9 1417.1,4168.28 1386.27,4305.64C1355.44,4443 1325.35,4539.15 1295.99,4594.09L1295.99,4629.41C1347.86,4621.57 1393.86,4696.13 1433.98,4853.11C1474.11,5010.1 1505.91,5218.1 1529.4,5477.12C1552.89,5736.14 1565.12,6018.71 1566.1,6324.82C1568.06,6772.23 1556.31,7141.14 1530.87,7431.55C1505.42,7721.97 1472.39,7953.52 1431.78,8126.2C1391.16,8298.88 1347.12,8420.54 1299.66,8491.18C1252.19,8561.83 1206.44,8597.15 1162.4,8597.15L986.245,8585.37C956.885,8585.37 928.259,8587.34 900.367,8591.26C872.476,8595.18 842.871,8605 811.554,8620.69ZM1062.58,4393.94L1124.24,4393.94C1143.81,4393.94 1165.83,4386.09 1190.3,4370.39C1214.76,4354.69 1238.25,4305.64 1260.76,4223.22C1283.27,4140.81 1301.62,4003.45 1315.81,3811.14C1330,3618.84 1337.09,3346.08 1337.09,2992.87C1337.09,2576.87 1324.62,2239.36 1299.66,1980.33C1274.7,1721.31 1229.93,1591.8 1165.34,1591.8L1062.58,1591.8L1062.58,4393.94ZM1168.28,8126.2C1212.32,8118.35 1252.44,8059.48 1288.65,7949.59C1324.86,7839.71 1353.73,7655.25 1375.26,7396.23C1396.79,7137.21 1407.56,6780.07 1407.56,6324.82C1404.62,6073.65 1394.1,5838.18 1376,5618.4C1357.89,5398.63 1328.53,5218.1 1287.92,5076.81C1247.3,4935.53 1192.25,4864.89 1122.77,4864.89L1062.58,4864.89L1062.58,7207.85C1062.58,7600.31 1069.92,7851.48 1084.6,7961.37C1099.28,8071.26 1127.17,8126.2 1168.28,8126.2Z" style="fill-rule:nonzero;stroke:black;stroke-width:43.85px;"/>
        <path d="M2024.11,8726.66C1948.76,8726.66 1885.39,8597.15 1834.01,8338.13C1782.63,8079.11 1744.22,7733.74 1718.77,7302.04C1693.33,6870.34 1680.6,6399.39 1680.6,5889.2C1680.6,5543.84 1688.19,5208.29 1703.36,4882.55C1718.53,4556.81 1740.3,4258.54 1768.68,3987.75C1797.06,3716.95 1831.32,3503.07 1871.44,3346.08C1911.57,3189.1 1957.08,3110.61 2007.97,3110.61C2098,3110.61 2165.77,3297.03 2211.28,3669.86C2256.79,4042.69 2282.97,4515.6 2289.82,5088.59C2289.82,5363.31 2280.28,5543.84 2261.19,5630.18C2242.11,5716.52 2217.4,5759.69 2187.06,5759.69L1830.34,5759.69C1830.34,6214.94 1838.17,6621.13 1853.83,6978.27C1869.49,7335.4 1894.2,7617.97 1927.96,7825.97C1961.72,8033.97 2006.5,8137.97 2062.28,8137.97C2103.39,8137.97 2138.62,8067.33 2167.98,7926.05C2197.34,7784.76 2225.72,7537.52 2253.12,7184.31C2260.95,7105.81 2271.71,7101.89 2285.41,7172.53C2293.24,7203.93 2298.14,7252.99 2300.1,7319.7C2302.05,7386.42 2301.07,7443.33 2297.16,7490.42C2266.82,7875.03 2228.65,8177.22 2182.66,8397C2136.66,8616.77 2083.81,8726.66 2024.11,8726.66ZM1830.34,5312.29L2069.62,5312.29C2093.11,5312.29 2111.95,5275.01 2126.14,5200.44C2140.33,5125.87 2147.91,4998.32 2148.89,4817.79C2148.89,4480.28 2137.39,4180.05 2114.39,3917.11C2091.4,3654.16 2055.92,3522.69 2007.97,3522.69C1959.03,3522.69 1918.17,3679.67 1885.39,3993.64C1852.6,4307.6 1834.25,4747.15 1830.34,5312.29Z" style="fill-rule:nonzero;stroke:black;stroke-width:43.85px;"/>
        <path d="M2388.18,8620.69C2381.32,8620.69 2375.7,8595.18 2371.29,8544.17C2366.89,8493.15 2364.69,8440.17 2364.69,8385.22C2365.66,8267.48 2369.34,8202.73 2375.7,8190.95C2382.06,8179.18 2389.64,8173.3 2398.45,8173.3C2425.85,8173.3 2444.69,8136.01 2454.97,8061.44C2465.24,7986.88 2471.12,7886.8 2472.58,7761.22C2474.05,7635.63 2474.79,7506.12 2474.79,7372.68L2474.79,1627.12C2474.79,1485.84 2474.05,1354.37 2472.58,1232.7C2471.12,1111.04 2465.49,1012.93 2455.7,938.363C2445.92,863.796 2427.32,826.513 2399.92,826.513C2391.11,826.513 2383.04,816.702 2375.7,797.079C2368.36,777.456 2364.69,708.776 2364.69,591.039C2364.69,473.302 2372.52,402.66 2388.18,379.113C2433.19,324.169 2467.69,269.225 2491.67,214.281C2515.64,159.337 2533.99,112.242 2546.72,72.997C2559.44,33.751 2570.7,10.204 2580.48,2.355C2588.31,-5.494 2594.92,6.279 2600.3,37.676C2605.68,69.072 2608.37,131.865 2608.37,226.055L2608.37,7372.68C2608.37,7506.12 2609.11,7635.63 2610.58,7761.22C2612.04,7886.8 2617.91,7986.88 2628.19,8061.44C2638.47,8136.01 2657.31,8173.3 2684.71,8173.3C2693.52,8173.3 2701.1,8179.18 2707.46,8190.95C2713.82,8202.73 2717.49,8267.48 2718.47,8385.22C2718.47,8440.17 2716.51,8493.15 2712.6,8544.17C2708.69,8595.18 2702.81,8620.69 2694.98,8620.69C2666.6,8605 2640.42,8595.18 2616.45,8591.26C2592.47,8587.34 2567.27,8585.37 2540.85,8585.37C2514.42,8585.37 2489.47,8587.34 2465.98,8591.26C2442.49,8595.18 2416.56,8605 2388.18,8620.69Z" style="fill-rule:nonzero;stroke:black;stroke-width:43.85px;"/>
        <path d="M3100.15,11152C2893.65,11152 2790.4,10681.1 2790.4,9739.19C2790.4,9480.17 2800.68,9250.59 2821.23,9050.43C2841.78,8850.28 2869.19,8750.2 2903.44,8750.2C2925.95,8750.2 2944.54,8799.26 2959.22,8897.38C2973.9,8995.49 2981.24,9064.17 2981.24,9103.42C2981.24,9119.11 2977.57,9154.43 2970.23,9209.38C2962.89,9264.32 2955.55,9338.89 2948.21,9433.08C2940.87,9527.27 2937.2,9652.85 2937.2,9809.84C2937.2,10414.2 3001.79,10716.4 3130.98,10716.4C3204.38,10716.4 3261.38,10614.4 3302,10410.3C3342.61,10206.2 3362.92,9896.18 3362.92,9480.17C3362.92,9252.55 3353.87,9079.87 3335.76,8962.13C3317.66,8844.4 3293.68,8761.98 3263.83,8714.88C3233.98,8667.79 3200.95,8638.35 3164.74,8626.58C3128.53,8614.81 3092.08,8605 3055.38,8597.15C3018.68,8589.3 2984.67,8565.75 2953.35,8526.51C2919.1,8479.41 2890.47,8387.18 2867.47,8249.82C2844.47,8112.46 2832.97,7886.8 2832.97,7572.84C2832.97,7282.42 2845.94,7029.28 2871.88,6813.43C2897.81,6597.58 2936.71,6489.66 2988.58,6489.66C2925.95,6293.43 2884.11,6054.03 2863.07,5771.46C2842.03,5488.89 2831.51,5198.48 2831.51,4900.21C2831.51,4562.7 2843.5,4258.54 2867.47,3987.75C2891.45,3716.95 2924.72,3501.1 2967.3,3340.2C3009.87,3179.29 3059.05,3098.84 3114.83,3098.84C3142.23,3098.84 3170.86,3116.49 3200.71,3151.82C3230.56,3187.14 3256.25,3247.97 3277.78,3334.31L3478.89,3028.19C3489.66,3020.34 3497,3047.82 3500.91,3110.61C3504.83,3173.4 3506.78,3240.12 3506.78,3310.76C3506.78,3412.8 3504.83,3512.88 3500.91,3610.99C3497,3709.1 3491.61,3758.16 3484.76,3758.16L3339.43,3711.07L3339.43,3734.61C3356.07,3868.05 3370.26,4044.65 3382,4264.43C3393.75,4484.2 3399.62,4692.21 3399.62,4888.44C3399.62,5265.19 3386.16,5590.93 3359.25,5865.65C3332.34,6140.37 3298.08,6350.34 3256.49,6495.54C3214.9,6640.75 3171.59,6713.36 3126.57,6713.36L3061.98,6713.36C3011.09,6713.36 2974.15,6752.6 2951.15,6831.09C2928.15,6909.59 2916.65,7039.1 2916.65,7219.63C2916.65,7360.91 2922.77,7468.84 2935,7543.4C2947.23,7617.97 2969.5,7663.1 3001.79,7678.8L3202.91,7737.67C3307.62,7769.07 3382.25,7902.5 3426.78,8137.97C3471.31,8373.45 3493.57,8722.73 3493.57,9185.83C3493.57,9601.84 3477.18,9957.01 3444.39,10251.4C3411.61,10545.7 3365.61,10769.4 3306.4,10922.5C3247.19,11075.5 3178.44,11152 3100.15,11152ZM3114.83,6371.92C3159.85,6371.92 3196.55,6244.37 3224.93,5989.28C3253.31,5734.18 3267.5,5367.23 3267.5,4888.44C3267.5,4448.88 3253.07,4101.56 3224.2,3846.46C3195.32,3591.37 3158.38,3463.82 3113.36,3463.82C3070.3,3463.82 3034.34,3587.44 3005.46,3834.69C2976.59,4081.94 2962.16,4425.34 2962.16,4864.89C2962.16,5343.69 2976.59,5714.56 3005.46,5977.5C3034.34,6240.45 3070.79,6371.92 3114.83,6371.92Z" style="fill-rule:nonzero;stroke:black;stroke-width:43.85px;"/>
        <path d="M3900.2,8726.66C3831.7,8726.66 3771.76,8597.15 3720.38,8338.13C3669,8079.11 3629.12,7741.59 3600.73,7325.59C3572.35,6909.59 3558.16,6466.11 3558.16,5995.16C3558.16,5532.06 3568.44,5119.98 3588.99,4758.93C3609.54,4397.86 3636.7,4095.67 3670.46,3852.35C3704.23,3609.03 3741.17,3424.57 3781.3,3298.99C3821.42,3173.4 3861.06,3110.61 3900.2,3110.61C3968.71,3110.61 4028.65,3240.12 4080.03,3499.14C4131.41,3758.16 4171.29,4095.67 4199.67,4511.68C4228.06,4927.68 4242.24,5371.16 4242.24,5842.1C4242.24,6305.2 4231.73,6717.28 4210.68,7078.34C4189.64,7439.4 4162.24,7741.59 4128.48,7984.92C4094.71,8228.24 4057.77,8412.69 4017.64,8538.28C3977.52,8663.86 3938.37,8726.66 3900.2,8726.66ZM3900.2,8291.03C3948.16,8291.03 3986.08,8177.22 4013.97,7949.59C4041.87,7721.97 4061.93,7421.74 4074.16,7048.91C4086.39,6676.07 4092.51,6273.81 4092.51,5842.1C4092.51,5426.1 4086.15,5045.42 4073.43,4700.06C4060.7,4354.69 4040.15,4076.05 4011.77,3864.12C3983.39,3652.2 3946.2,3546.24 3900.2,3546.24C3852.25,3546.24 3814.08,3658.09 3785.7,3881.78C3757.32,4105.48 3737.26,4399.83 3725.51,4764.81C3713.77,5129.8 3707.9,5532.06 3707.9,5971.61C3707.9,6379.77 3714.01,6760.45 3726.25,7113.66C3738.48,7466.87 3758.79,7751.4 3787.17,7967.26C3815.55,8183.11 3853.23,8291.03 3900.2,8291.03Z" style="fill-rule:nonzero;stroke:black;stroke-width:43.85px;"/>
        <path d="M4403.72,8726.66C4377.3,8726.66 4355.28,8657.98 4337.66,8520.62C4320.05,8383.26 4311.24,8204.69 4311.24,7984.92C4311.24,7780.84 4320.05,7608.16 4337.66,7466.87C4355.28,7325.59 4377.79,7254.95 4405.19,7254.95C4431.62,7254.95 4453.88,7325.59 4471.99,7466.87C4490.09,7608.16 4499.14,7780.84 4499.14,7984.92C4499.14,8204.69 4490.09,8383.26 4471.99,8520.62C4453.88,8657.98 4431.13,8726.66 4403.72,8726.66Z" style="fill-rule:nonzero;stroke:black;stroke-width:43.85px;"/>
        <path d="M4814.76,8726.66C4755.06,8726.66 4707.35,8589.3 4671.63,8314.58C4635.91,8039.86 4618.05,7710.2 4618.05,7325.59C4618.05,6925.28 4631.02,6611.32 4656.95,6383.69C4682.89,6156.07 4717.14,5987.31 4759.71,5877.43C4802.28,5767.54 4848.77,5692.97 4899.17,5653.73C4949.57,5614.48 4998.75,5583.08 5046.7,5559.54L5046.7,4629.41C5046.7,4260.51 5035.2,3972.05 5012.21,3764.05C4989.21,3556.05 4950.31,3452.05 4895.5,3452.05C4868.1,3452.05 4842.41,3522.69 4818.43,3663.97C4794.45,3805.26 4782.47,4009.33 4782.47,4276.2C4782.47,4401.79 4786.38,4507.75 4794.21,4594.09C4802.04,4680.43 4809.87,4747.15 4817.7,4794.25C4825.53,4841.34 4829.44,4872.74 4829.44,4888.44C4829.44,4919.83 4823.81,4976.74 4812.56,5059.15C4801.31,5141.57 4785.89,5182.78 4766.32,5182.78C4735.98,5182.78 4712.49,5092.51 4695.85,4911.98C4679.22,4731.45 4670.9,4531.3 4670.9,4311.52C4670.9,4013.26 4682.4,3777.78 4705.4,3605.1C4728.4,3432.42 4758,3306.84 4794.21,3228.35C4830.42,3149.85 4867.12,3110.61 4904.31,3110.61C4948.35,3110.61 4991.16,3153.78 5032.76,3240.12C5074.35,3326.46 5108.6,3491.29 5135.52,3734.61C5162.43,3977.94 5175.89,4342.92 5175.89,4829.57L5175.89,7572.84C5176.86,7651.33 5179.31,7745.52 5183.23,7855.4C5187.14,7965.29 5194.73,8061.44 5205.98,8143.86C5217.23,8226.28 5232.65,8267.48 5252.22,8267.48C5259.07,8267.48 5264.45,8277.3 5268.37,8296.92C5272.28,8316.54 5274.24,8369.52 5274.24,8455.86C5274.24,8526.51 5269.35,8581.45 5259.56,8620.69C5249.78,8659.94 5238.52,8687.41 5225.8,8703.11C5213.08,8718.81 5202.31,8726.66 5193.5,8726.66C5157.29,8726.66 5125,8642.28 5096.61,8473.52C5068.23,8304.77 5051.6,8071.26 5046.7,7772.99C5025.17,8086.95 4993.12,8324.39 4950.55,8485.3C4907.98,8646.2 4862.72,8726.66 4814.76,8726.66ZM4861.74,8090.88C4895.01,8090.88 4925.6,8024.16 4953.49,7890.73C4981.38,7757.29 5003.89,7574.8 5021.01,7343.25C5038.14,7111.7 5046.7,6854.64 5046.7,6572.07L5046.7,5900.97C4945.9,5955.92 4873.97,6085.43 4830.91,6289.5C4787.85,6493.58 4766.32,6827.17 4766.32,7290.27C4766.32,7824.01 4798.12,8090.88 4861.74,8090.88Z" style="fill-rule:nonzero;stroke:black;stroke-width:43.85px;"/>
        <path d="M5368.19,8620.69C5361.34,8620.69 5355.72,8595.18 5351.31,8544.17C5346.91,8493.15 5344.71,8440.17 5344.71,8385.22C5346.66,8267.48 5350.58,8202.73 5356.45,8190.95C5362.32,8179.18 5370.15,8173.3 5379.94,8173.3C5407.34,8173.3 5425.93,8136.01 5435.72,8061.44C5445.51,7986.88 5451.14,7886.8 5452.6,7761.22C5454.07,7635.63 5454.81,7506.12 5454.81,7372.68L5454.81,4676.51C5454.81,4535.23 5454.07,4403.75 5452.6,4282.09C5451.14,4160.43 5445.51,4062.32 5435.72,3987.75C5425.93,3913.18 5407.34,3875.9 5379.94,3875.9C5371.13,3875.9 5363.06,3866.09 5355.72,3846.46C5348.38,3826.84 5344.71,3758.16 5344.71,3640.42C5344.71,3522.69 5352.53,3452.05 5368.19,3428.5C5413.21,3373.55 5447.71,3318.61 5471.69,3263.67C5495.66,3208.72 5513.77,3161.63 5526,3122.38C5538.23,3083.14 5549.24,3059.59 5559.03,3051.74C5566.86,3043.89 5573.47,3055.66 5578.85,3087.06C5584.23,3118.46 5586.92,3181.25 5586.92,3275.44L5586.92,4005.41L5591.33,4005.41C5624.6,3746.39 5658.86,3532.5 5694.09,3363.74C5729.32,3194.99 5761.61,3110.61 5790.97,3110.61C5825.23,3110.61 5851.41,3212.65 5869.51,3416.72C5887.62,3620.8 5896.67,3836.65 5896.67,4064.28C5896.67,4260.51 5888.84,4450.85 5873.18,4635.3C5857.52,4819.76 5834.03,4911.98 5802.72,4911.98C5787.06,4911.98 5774.58,4886.47 5765.28,4835.45C5755.99,4784.44 5750.85,4747.15 5749.87,4723.6C5749.87,4707.91 5754.52,4660.81 5763.82,4582.32C5773.11,4503.83 5777.76,4405.71 5777.76,4287.98C5777.76,4146.69 5773.11,4032.88 5763.82,3946.54C5754.52,3860.2 5742.04,3817.03 5726.38,3817.03C5709.75,3817.03 5688.46,3883.75 5662.53,4017.18C5636.59,4150.62 5611.88,4311.52 5588.39,4499.9L5588.39,7372.68C5588.39,7506.12 5589.13,7635.63 5590.59,7761.22C5592.06,7886.8 5597.93,7986.88 5608.21,8061.44C5618.49,8136.01 5637.32,8173.3 5664.73,8173.3C5673.53,8173.3 5681.12,8179.18 5687.48,8190.95C5693.84,8202.73 5697.51,8267.48 5698.49,8385.22C5698.49,8440.17 5696.53,8493.15 5692.62,8544.17C5688.7,8595.18 5682.83,8620.69 5675,8620.69C5646.62,8605 5620.44,8595.18 5596.47,8591.26C5572.49,8587.34 5547.29,8585.37 5520.86,8585.37C5494.44,8585.37 5469.48,8587.34 5446,8591.26C5422.51,8595.18 5396.57,8605 5368.19,8620.69Z" style="fill-rule:nonzero;stroke:black;stroke-width:43.85px;"/>
        <path d="M6237.24,8785.53C6207.88,8785.53 6179.99,8726.66 6153.57,8608.92C6127.14,8491.18 6105.37,8310.65 6088.24,8067.33C6071.12,7824.01 6062.55,7517.89 6062.55,7148.98L6062.55,3687.52L5977.41,3711.07C5970.56,3711.07 5965.42,3689.48 5961.99,3646.31C5958.57,3603.14 5956.86,3554.08 5956.86,3499.14C5956.86,3342.16 5963.71,3251.89 5977.41,3228.35C6013.62,3173.4 6041.02,3081.17 6059.62,2951.66C6078.21,2822.15 6092.65,2667.13 6102.92,2486.6C6113.2,2306.07 6122.74,2109.85 6131.55,1897.92C6134.48,1835.13 6138.89,1793.92 6144.76,1774.3C6150.63,1754.67 6156.99,1744.86 6163.84,1744.86C6169.72,1744.86 6176.32,1756.63 6183.66,1780.18C6191,1803.73 6194.67,1846.9 6194.67,1909.69L6184.4,3251.89L6356.15,3169.48C6364.96,3161.63 6370.83,3181.25 6373.77,3228.35C6376.7,3275.44 6378.17,3330.38 6378.17,3393.18C6378.17,3471.67 6376.46,3550.16 6373.03,3628.65C6369.61,3707.14 6365.45,3746.39 6360.55,3746.39L6196.14,3711.07L6196.14,7290.27C6196.14,7517.89 6202.26,7725.89 6214.49,7914.27C6226.72,8102.65 6248.99,8196.84 6281.28,8196.84C6292.05,8196.84 6304.28,8188.99 6317.98,8173.3C6331.68,8157.6 6346.36,8122.28 6362.02,8067.33C6365.94,8051.63 6369.85,8037.9 6373.77,8026.12C6377.68,8014.35 6381.6,8008.46 6385.51,8008.46C6393.34,8008.46 6399.21,8033.97 6403.13,8084.99C6407.04,8136.01 6410.47,8188.99 6413.4,8243.94C6416.34,8314.58 6413.89,8369.52 6406.06,8408.77C6375.72,8565.75 6347.83,8667.79 6322.39,8714.88C6296.94,8761.98 6268.56,8785.53 6237.24,8785.53Z" style="fill-rule:nonzero;stroke:black;stroke-width:43.85px;"/>
    </g>
</svg>
