<?xml version="1.0" encoding="UTF-8" standalone="no"?>
<!DOCTYPE svg PUBLIC "-//W3C//DTD SVG 1.1//EN" "http://www.w3.org/Graphics/SVG/1.1/DTD/svg11.dtd">
<svg width="100%" height="100%" viewBox="0 0 1435 317" version="1.1" xmlns="http://www.w3.org/2000/svg" xmlns:xlink="http://www.w3.org/1999/xlink" xml:space="preserve" xmlns:serif="http://www.serif.com/" style="fill-rule:evenodd;clip-rule:evenodd;stroke-linejoin:round;stroke-miterlimit:2;">
    <g id="Belgo.art--Retracked--FInal-OK--Group-" serif:id="Belgo.art (Retracked) FInal OK (Group)" transform="matrix(0.207609,0,0,0.0349208,-49.682,2.84217e-14)">
        <path d="M1025.48,3151.6C1090.04,3268.68 1140.92,3483.34 1178.12,3795.58C1215.32,4107.81 1233.92,4472.08 1233.92,4888.39C1233.92,5493.34 1197.82,5987.71 1125.6,6371.49C1051.19,6755.28 952.17,6947.17 828.527,6947.17L239.305,6947.17L239.305,-0L825.244,-0C934.663,-0 1022.75,159.369 1089.49,478.106C1156.24,796.843 1189.61,1219.66 1189.61,1746.55C1189.61,2462.08 1134.9,2930.43 1025.48,3151.6ZM777.647,1434.32L546.225,1434.32L546.225,2663.73L772.723,2663.73C855.881,2663.73 897.461,2455.58 897.461,2039.27C897.461,1857.13 887.066,1710.77 866.276,1600.19C845.487,1489.61 815.943,1434.32 777.647,1434.32ZM546.225,5464.07L789.136,5464.07C838.374,5464.07 876.124,5395.77 902.385,5259.17C928.645,5122.56 941.775,4937.18 941.775,4703C941.775,4468.83 929.192,4285.07 904.026,4151.72C878.859,4018.37 843.298,3951.69 797.342,3951.69L546.225,3951.69L546.225,5464.07Z" style="fill:rgb(20,22,24);fill-rule:nonzero;"/>
        <path d="M2189.15,4624.94L2189.15,4878.63L1572.03,4878.63C1586.25,5568.15 1645.34,5912.9 1749.29,5912.9C1821.51,5912.9 1870.74,5734.02 1897,5376.25L2167.82,5483.58C2138.27,6010.48 2087.67,6417.03 2016,6703.24C1944.33,6989.45 1855.97,7132.56 1750.93,7132.56C1608.68,7132.56 1496.53,6882.12 1414.47,6381.25C1332.4,5880.38 1291.37,5229.89 1291.37,4429.8C1291.37,3636.21 1332.4,2992.23 1414.47,2497.86C1494.34,2003.49 1601.57,1756.31 1736.16,1756.31C1877.31,1756.31 1988.37,2026.26 2069.34,2566.16C2149.22,3099.56 2189.15,3785.82 2189.15,4624.94ZM1573.67,3873.63L1900.29,3873.63C1887.16,3255.67 1833.54,2946.69 1739.44,2946.69C1645.34,2946.69 1590.08,3255.67 1573.67,3873.63Z" style="fill:rgb(20,22,24);fill-rule:nonzero;"/>
        <rect x="2279.42" y="-0" width="282.301" height="6947.17" style="fill:rgb(20,22,24);fill-rule:nonzero;"/>
        <path d="M3267.48,2468.59L3277.33,1912.42L3535.01,1912.42L3535.01,6810.57C3535.01,7519.6 3496.16,8070.88 3418.48,8464.43C3340.79,8857.97 3231.37,9054.74 3090.22,9054.74C2846.22,9054.74 2708.89,8498.58 2678.26,7386.25L2944.14,7308.19C2962.75,7672.46 3013.08,7854.6 3095.14,7854.6C3150.95,7854.6 3191.16,7783.05 3215.78,7639.94C3240.4,7496.83 3252.71,7275.67 3252.71,6976.44L3252.71,6303.19C3194.71,6706.49 3115.93,6908.14 3016.36,6908.14C2908.04,6908.14 2820.5,6670.72 2753.76,6195.86C2687.01,5734.02 2653.64,5106.3 2653.64,4312.71C2653.64,3519.12 2687.56,2891.4 2755.4,2429.56C2822.14,1980.73 2908.04,1756.31 3013.08,1756.31C3119.22,1756.31 3204.01,1993.73 3267.48,2468.59ZM3093.5,5561.64C3143.84,5561.64 3184.05,5446.18 3214.14,5215.26C3244.23,4984.34 3259.27,4676.98 3259.27,4293.2C3259.27,3915.92 3244.23,3611.81 3214.14,3380.89C3184.05,3149.97 3143.84,3034.51 3093.5,3034.51C3044.26,3034.51 3005.69,3143.47 2977.79,3361.38C2949.89,3579.29 2935.94,3889.9 2935.94,4293.2C2935.94,4696.5 2949.89,5008.73 2977.79,5229.89C3005.69,5451.06 3044.26,5561.64 3093.5,5561.64Z" style="fill:rgb(20,22,24);fill-rule:nonzero;"/>
        <path d="M4536.19,4439.56C4536.19,5233.15 4494.07,5880.38 4409.81,6381.25C4325.56,6882.12 4216.14,7132.56 4081.56,7132.56C3946.97,7132.56 3837.55,6882.12 3753.3,6381.25C3669.05,5880.38 3626.92,5233.15 3626.92,4439.56C3626.92,3652.47 3669.05,3008.49 3753.3,2507.62C3837.55,2006.74 3946.97,1756.31 4081.56,1756.31C4216.14,1756.31 4325.56,2006.74 4409.81,2507.62C4494.07,3008.49 4536.19,3652.47 4536.19,4439.56ZM3953.54,5522.61C3983.08,5776.3 4025.75,5903.15 4081.56,5903.15C4136.27,5903.15 4179.49,5776.3 4211.22,5522.61C4240.76,5275.43 4255.53,4914.41 4255.53,4439.56C4255.53,3971.21 4240.49,3611.81 4210.4,3361.38C4180.31,3110.94 4137.36,2985.72 4081.56,2985.72C4025.75,2985.72 3983.08,3110.94 3953.54,3361.38C3923.99,3611.81 3909.22,3971.21 3909.22,4439.56C3909.22,4914.41 3923.99,5275.43 3953.54,5522.61Z" style="fill:rgb(20,22,24);fill-rule:nonzero;"/>
        <rect x="4613.33" y="5278.68" width="316.768" height="1668.49" style="fill:rgb(155,27,30);fill-rule:nonzero;"/>
        <path d="M5903.38,6947.17L5621.08,6947.17C5607.95,6739.02 5599.75,6556.88 5596.46,6400.77C5537.38,6882.12 5448.2,7122.8 5328.93,7122.8C5237.02,7122.8 5163.71,6982.95 5109,6703.24C5054.29,6423.53 5026.94,6049.5 5026.94,5581.16C5026.94,4755.04 5114.47,4250.91 5289.54,4068.78L5584.97,3756.55L5584.97,3395.53C5584.97,3063.78 5543.4,2897.91 5460.24,2897.91C5419.75,2897.91 5389.66,2945.07 5369.97,3039.39C5350.27,3133.71 5338.23,3288.2 5333.86,3502.86L5069.61,3454.07C5079.46,2875.14 5116.11,2449.07 5179.58,2175.87C5243.04,1902.67 5338.78,1766.07 5466.8,1766.07C5730.5,1766.07 5862.35,2380.77 5862.35,3610.19L5862.35,5786.06C5862.35,6280.43 5876.03,6667.46 5903.38,6947.17ZM5419.2,5990.96C5470.63,5990.96 5512.21,5904.77 5543.94,5732.39C5575.67,5560.02 5591.54,5314.46 5591.54,4995.72L5591.54,4693.24L5411,4907.9C5339.88,4998.97 5304.31,5184.36 5304.31,5464.07C5304.31,5815.33 5342.61,5990.96 5419.2,5990.96Z" style="fill:rgb(155,27,30);fill-rule:nonzero;"/>
        <path d="M6445.01,1736.79C6472.36,1736.79 6499.17,1759.56 6525.43,1805.09L6525.43,3288.2C6504.64,3268.68 6483.85,3258.93 6463.06,3258.93C6315.35,3258.93 6241.49,3707.76 6241.49,4605.43L6241.49,6947.17L5959.19,6947.17L5959.19,1912.42L6226.72,1912.42L6230,2634.46C6274.86,2036.02 6346.53,1736.79 6445.01,1736.79Z" style="fill:rgb(155,27,30);fill-rule:nonzero;"/>
        <path d="M7150.76,3005.24L6994.84,2975.97L6994.84,5142.08C6994.84,5486.84 7021.65,5659.21 7075.26,5659.21L7150.76,5659.21L7150.76,6947.17L6978.43,6947.17C6879.95,6947.17 6811.02,6828.46 6771.62,6591.03C6732.23,6353.61 6712.54,5942.17 6712.54,5356.74L6712.54,2985.72L6589.44,3005.24L6589.44,1912.42L6712.54,1931.94L6712.54,380.533L6994.84,380.533L6994.84,1941.7L7150.76,1912.42L7150.76,3005.24Z" style="fill:rgb(155,27,30);fill-rule:nonzero;"/>
    </g>
</svg>
